<?xml version="1.0" encoding="utf-8"?>
<!-- Generator: Adobe Illustrator 16.0.0, SVG Export Plug-In . SVG Version: 6.00 Build 0)  -->
<!DOCTYPE svg PUBLIC "-//W3C//DTD SVG 1.1//EN" "http://www.w3.org/Graphics/SVG/1.1/DTD/svg11.dtd">
<svg version="1.1" id="Layer_1" xmlns="http://www.w3.org/2000/svg" xmlns:xlink="http://www.w3.org/1999/xlink" x="0px" y="0px"
	 width="560px" height="171.493px" viewBox="0 0 560 171.493" enable-background="new 0 0 560 171.493" xml:space="preserve">
<rect fill="#182545" width="561" height="171.493"/>
<path fill="#FBCF33" d="M202.969,49.279v-3.574h-1.65h-0.883h-28.224c-7.642,0.004-14.216,4.717-17.115,11.415
	c-2.954-6.703-9.649-11.411-17.42-11.415h-28.75h-0.897h-0.898h-0.77v3.574h-6.352v71.617l30.649-0.044h3.223l-1.795,4.936h3.55
	l1.795-4.936h36.544l1.911,4.936h3.576l-1.91-4.935l31.506,0.042v-0.771V49.279H202.969z M141.06,110.879h29.055l2.568,6.636
	h-34.038L141.06,110.879z M129.888,117.515v0.044h-26.544V52.613h3.017v55.722h0.971l0.007,0.127l0.77-0.043
	c0.891-0.049,1.756-0.072,2.594-0.072c9.475,0.009,15.439,2.98,19.114,5.891l0,0c1.46,1.159,2.546,2.312,3.328,3.277
	L129.888,117.515L129.888,117.515z M131.894,111.625l-0.06-0.047L131.894,111.625c-4.192-3.342-10.995-6.617-21.167-6.613h-0.037
	l0,0c-0.326,0-0.662,0.012-0.993,0.021V49.041h27.98c4.318,0,8.236,1.762,11.089,4.613c2.851,2.854,4.613,6.772,4.613,11.089v2.534
	l-3.768,10.354h-3.182v3.335h1.969l-2.415,6.637h-3.148v3.335h1.935l-2.415,6.637h-3.212v3.336h1.998l-2.415,6.637h-3.23v3.334
	h2.016l-1.688,4.639C134.899,114.368,133.616,112.997,131.894,111.625z M153.159,77.629l1.979-5.438l2.105,5.438H153.159z
	 M149.531,87.601l2.414-6.637h6.589l2.569,6.637H149.531z M142.272,107.543l2.415-6.635h21.567l2.568,6.635H142.272z
	 M145.901,97.573l2.416-6.638h14.077l2.568,6.638H145.901z M175.716,110.879v-3.334h-3.317l-2.569-6.637h1.944v-3.334h-3.234
	l-2.569-6.639h1.866V87.6h-3.156l-2.569-6.637h1.975v-3.336h-3.267l-4.01-10.359v-2.526c0-4.32,1.732-8.242,4.531-11.094
	c2.801-2.85,6.641-4.607,10.871-4.608h27.455v56.091c-8.473,0.33-14.77,3.402-18.944,6.496c-2.247,1.662-3.888,3.316-4.975,4.562
	l-2.057-5.312h2.025V110.879z M179.057,117.515c0.933-0.976,2.171-2.124,3.74-3.274c3.988-2.916,9.993-5.812,18.372-5.818h0.157
	h0.77v-0.086h0.104h0.769V52.613h2.754v64.945h-24.149v-0.044L179.057,117.515L179.057,117.515z"/>
<text transform="matrix(0.9882 0 0 1 237.0981 98.8218)" fill="#FBCF33" font-family="'Karla-Bold'" font-size="54.024">train-ing</text>
</svg>
